<?xml version="1.0" encoding="utf-8"?>
<!-- Generator: Adobe Illustrator 24.1.2, SVG Export Plug-In . SVG Version: 6.00 Build 0)  -->
<svg version="1.1" id="Layer_1" xmlns="http://www.w3.org/2000/svg" xmlns:xlink="http://www.w3.org/1999/xlink" x="0px" y="0px"
	 width="1080px" height="1080px" viewBox="0 0 1080 1080" style="enable-background:new 0 0 1080 1080;" xml:space="preserve">
<style type="text/css">
	.st0{fill:#F2F2F2;}
	.st1{fill:#313149;}
	.st2{fill:#8896FF;stroke:#000000;stroke-width:1.7566;stroke-miterlimit:10;}
	.st3{fill:#8896FF;stroke:#000000;stroke-width:1.5579;stroke-miterlimit:10;}
	.st4{clip-path:url(#SVGID_2_);stroke:#000000;stroke-width:1.5579;stroke-miterlimit:10;}
	.st5{fill:#F7AB26;stroke:#000000;stroke-width:1.7566;stroke-miterlimit:10;}
	.st6{fill:#FDE6BE;stroke:#000000;stroke-width:1.5579;stroke-miterlimit:10;}
	.st7{fill:none;stroke:#000000;stroke-width:2.1685;stroke-linecap:round;stroke-miterlimit:10;}
	.st8{fill:#FCFBF7;stroke:#000000;stroke-width:1.7566;stroke-linecap:round;stroke-linejoin:round;stroke-miterlimit:10;}
	.st9{fill:#FDE6BE;stroke:#000000;stroke-width:1.7566;stroke-miterlimit:10;}
	.st10{fill:#D2DBFF;stroke:#000000;stroke-width:1.7566;stroke-miterlimit:10;}
	.st11{fill:#E4E4E4;stroke:#000000;stroke-width:1.7566;stroke-miterlimit:10;}
	.st12{fill:#FCFBF7;stroke:#000000;stroke-width:1.7566;stroke-miterlimit:10;}
	.st13{opacity:0.1;fill:#1A1933;}
	.st14{fill:#EFD17D;}
	.st15{fill:none;stroke:#FFFFFF;stroke-width:1.5579;stroke-linecap:round;stroke-miterlimit:10;}
	.st16{fill:#FBD592;stroke:#000000;stroke-width:1.7566;stroke-miterlimit:10;}
	.st17{fill:#D6632C;}
	.st18{clip-path:url(#SVGID_4_);}
	.st19{fill:#3A130E;stroke:#000000;stroke-width:1.5579;stroke-miterlimit:10;}
	.st20{fill:none;stroke:#000000;stroke-width:1.7566;stroke-miterlimit:10;}
	.st21{fill:none;stroke:#000000;stroke-width:1.7566;stroke-linecap:round;stroke-linejoin:round;stroke-miterlimit:10;}
	.st22{fill:#EFF6FE;}
	.st23{fill:none;stroke:#000000;stroke-width:2.6809;stroke-linecap:round;stroke-linejoin:round;stroke-miterlimit:10;}
	.st24{fill:none;stroke:#000000;stroke-width:1.7566;stroke-linecap:round;stroke-miterlimit:10;}
	.st25{fill:none;stroke:#000000;stroke-width:1.5579;stroke-linecap:round;stroke-miterlimit:10;}
	.st26{fill:#F7AB26;stroke:#000000;stroke-width:1.5579;stroke-miterlimit:10;}
	.st27{fill:none;stroke:#000000;stroke-width:4.1412;stroke-linecap:round;stroke-linejoin:round;stroke-miterlimit:10;}
	.st28{fill:#FCFBF7;}
	.st29{fill:none;stroke:#000000;stroke-width:1.8189;stroke-miterlimit:10;}
	.st30{fill:none;stroke:#000000;stroke-width:1.128;stroke-miterlimit:10;}
	.st31{fill:none;stroke:#000000;stroke-width:1.4643;stroke-miterlimit:10;}
	.st32{fill:none;stroke:#000000;stroke-width:1.3324;stroke-miterlimit:10;}
	.st33{fill:none;stroke:#000000;stroke-width:1.7343;stroke-miterlimit:10;}
	.st34{fill:none;stroke:#000000;stroke-width:1.7766;stroke-miterlimit:10;}
</style>
<g>
	<path class="st0" d="M1011.4,782.4c19.5-12.4,42.1-23.5,51.6-44.5c16.3-35.9-14.9-74.9-19.6-114c-3.6-29.5,8.2-58.5,14.2-87.6
		c14.8-71.7-10.8-154.1-72.7-193c-48.1-30.1-108.3-30.6-165-30.2c-45.2,0.4-93,1.4-131.6,25.1c-19.4,11.9-35.5,29.1-56.3,38.2
		c-37.6,16.5-81.9,3-116.7-18.8c-34.7-21.8-64.1-51.5-99.8-71.8c-79.4-45.2-192.5-31.4-247.5,41.5c-19.3,25.6-30.8,56.2-46.9,84
		C93.5,458.7,52,498.7,35.9,551c-17.4,56.6-0.6,121.2,38.7,165.4c39.3,44.2,98.9,68.3,158.1,68.8c64.2,0.6,129-24.5,191.4-9.7
		c55.6,13.2,103.2,56.9,160.4,57.3c42.9,0.3,81.6-24.1,117.5-47.7c36.8-24.1,73.5-48.2,110.3-72.4c17.9-11.8,40-24,59.6-15.4
		c17.5,7.7,24.7,29,25.1,48.2c0.4,20.1-4.6,39.8-6.8,59.7c-2.3,19.9-1.5,41.3,9,58.4c7.5,12.1,22.5,22.6,37.3,22.1
		c17.6-0.7,15.9-11.7,17.8-25.8C958.8,826.8,984.1,799.7,1011.4,782.4z"/>
	<g>
		<path d="M435.8,741.7c-21.3-5-38.1-19-47.6-37c-11.8,2.6-24.3,2.7-36.9-0.3c-45.2-10.6-73.2-55.8-62.6-101
			c3.2-13.8-54.3-6.9-45.6-16.9c-17.2-13.4,29-54.2,31.3-64.3c-25.1-58.8,22.2-83.6,24.9-93.4c5.9-21-5.1-30,4.2-48.8
			c14.5-29.2,35.2-29.3,54.7-30.1l-0.2,0c-0.9,0.5-1.8,1-2.7,1.5c2.2-0.6,4.3-1.1,6.6-1.4c-1.1,0-2.3-0.1-3.4-0.1
			c-0.1,0-0.2,0-0.3,0l3.7,0.1c2-0.3,4-0.5,6.1-0.6c0.2-2.4,0.6-4.9,1.1-7.4c6.7-28.6,35.4-46.4,64-39.7c15.7,3.7,28.1,14,35,27.2
			c8.7-1.9,17.9-2,27.2,0.2c33.2,7.8,53.9,41.1,46.1,74.3c-2.4,10.2-7.2,19.1-13.6,26.5c17.1,13.4,26,36,20.7,58.5
			c-0.5,2-1.1,3.9-1.7,5.8c2,10.2,2.7,20.8,1.7,31.5c36.2,13.7,57.6,52.4,48.5,91.1c-8.2,34.9-38.5,58.7-72.6,60.3
			c-0.3,3.3-0.8,6.7-1.5,10C513.7,726.7,474.7,750.9,435.8,741.7z"/>
		<g>
			<g>
				<g>
					<g>
						<g>
							<path class="st1" d="M329.5,497.4L329.5,497.4L329.5,497.4z"/>
						</g>
						<g>
							<path class="st1" d="M387.6,364.2L387.6,364.2L387.6,364.2z"/>
						</g>
					</g>
				</g>
			</g>
		</g>
	</g>
	<g>
		<path class="st2" d="M775.9,536.8L938.1,562c26.3,7.9,42.5,43.5,36.3,70.2L863.7,908.4H706.1h-13h-210l-13.3-286.2
			c-6.2-26.7,9.5-53.6,35.8-61.5l113.9-23.7C632.4,534.3,763.4,534.2,775.9,536.8z"/>
		<g>
			<path class="st3" d="M941.3,562c39.1,3.3,78.8,89.2,87,173l-142.8,6C885.5,740.9,848,554.1,941.3,562z"/>
		</g>
		<g>
			<g>
				<defs>
					<polygon id="SVGID_1_" points="769.6,638.6 634.4,907.8 853.6,908.4 872.2,634.8 					"/>
				</defs>
				<use xlink:href="#SVGID_1_"  style="overflow:visible;fill:#FDE6BE;"/>
				<clipPath id="SVGID_2_">
					<use xlink:href="#SVGID_1_"  style="overflow:visible;"/>
				</clipPath>
				<path class="st4" d="M662.5,857.9c14.1,0,28.5-4.3,39-13.8c11.6-10.5,17.5-26.2,28.9-36.8c6.1-5.6,13.6-9.7,18.8-16.2
					c10.5-13.2,8.4-32.5,2.2-48.2c-4.8-12.2-13-24.7-25.7-27.9c-12.9-3.3-26.1,3.8-36.5,12.2c-17.6,14.2-31.5,32.9-40.1,53.7
					c-4.5,10.8-7.6,22.4-14,32.2c-5.7,8.7-19.4,21.5-12.1,33C630,856.7,651.4,858,662.5,857.9z"/>
				<path class="st4" d="M859.2,700.2c-5.5,2.3-10.4,6.3-12.9,11.7c-3,6.6-2.2,14.3-0.9,21.4c1.9,10.1,5,20.8,13,27.2
					c5.1,4.1,13.1,5.7,18,1.4c3.2-2.8,4.4-7.3,4.4-11.5c0-4.2-0.9-8.4-1.1-12.7c-0.2-6.8,1.6-13.4,2.4-20.1
					c0.7-5.7,1.6-15.7-4.2-19.1C873.2,695.6,863.9,698.3,859.2,700.2z"/>
				<path class="st4" d="M853.6,818.1c-11.6,5.4-22.5,14.3-25.8,26.7c-1.5,5.5-1.3,11.5-3.6,16.7c-4.4,10.4-17.1,16.1-19.6,27.1
					c-1.7,7.1,1.6,14.6,6.2,20.2c7.2,8.8,18.2,14.6,29.6,14.9c11.4,0.3,23-5,29.6-14.3c6.6-9.4,7.9-21.5,7.4-33
					c-0.5-11.5-2.6-22.9-1.8-34.4c0.5-6.8,2.8-17.1-2.2-22.8C868.5,813.4,859.5,815.3,853.6,818.1z"/>
				<use xlink:href="#SVGID_1_"  style="overflow:visible;fill:none;stroke:#000000;stroke-width:1.7566;stroke-miterlimit:10;"/>
			</g>
			<path class="st5" d="M749.1,609.9c0,0,8.9,53.7,66.8,53.7c57.9,0,66.7-53.7,66.7-53.7H749.1z"/>
			<path class="st5" d="M807.2,675.4c0,5.6,4.6,10.2,10.2,10.2c5.6,0,10.2-4.6,10.2-10.2c0-5.6-4.6-10.2-10.2-10.2
				C811.8,665.2,807.2,669.8,807.2,675.4z"/>
			<path d="M792.9,560.7c0,0,6.4-67.3,38.4-65.6c32,1.7,20.2,63,20.2,63S807.2,553.7,792.9,560.7z"/>
			<path class="st6" d="M761.5,608.1c5.6-41,46.8-67.2,86.8-56.4c31.7,8.5,73.5,23.8,73.6,44.8c0.1,33.9-105.1,61.1-143.8,48.4
				C763.5,640.2,759.1,625.2,761.5,608.1z"/>
			<g>
				<g>
					<path d="M873.3,592.4c0,10.8,12.1,14,27.1,14c15,0,27.1-3.2,27.1-14c0-10.8-12.1-19.6-27.1-19.6
						C885.4,572.8,873.3,581.6,873.3,592.4z"/>
				</g>
			</g>
			<path class="st7" d="M838.1,592.2c0,0-6.5,22.8-24.9,5.4"/>
			<path d="M807.2,575.2c1.1,3.6,7.6,1.7,14.1-0.2c6.5-1.9,10.5-3.3,9.5-6.8c-1.1-3.6-7.2-4.9-13.7-2.9
				C810.5,567.2,806.1,571.7,807.2,575.2z"/>
			<path d="M789.8,562c0,0-63.4,28.8-53.3,58.5c10.1,29.7,54.8,19.6,64.5,2.1s-11-59.8-11-59.8"/>
			<path class="st7" d="M909.6,606c0,0,0.6,9.1-18.8,9.1"/>
		</g>
		<path class="st8" d="M1010.7,735.7L903,734.7l-142.4-28.2l-8.4-22c-1.7-4.4-7-6-10.9-3.4c-1.6,1.1-4,2.2-5.8,4.5
			c-6.7,8.6-10.9,10.5-17.5,26.1c-6.6,15.5,17.3,36.5,17.3,36.5s161,159.1,231.7,140.1C1037.6,869.3,1010.7,735.7,1010.7,735.7z"/>
		<g>
			<path class="st9" d="M793.7,700.1c0,0,29.1,23.9,32.8,48.1c0,0,12.9,1.1,13.7,21.6l-35.2,4.7c-6.2,0.8-11.8-3.6-12.4-9.8l-1-10.4
				l-17.4-46.1C774.2,708.2,778.7,691.5,793.7,700.1z"/>
			<path class="st7" d="M829.4,764.3c-0.3-4.3-3.6-8.2-7.8-9.3"/>
			<path class="st7" d="M813.8,766.2c-1.2-3.1-3.4-5.8-6.2-7.6"/>
		</g>
		<g>
			<path class="st9" d="M868.6,687.9c0,0,38.9,43.5,42.5,67.6c0,0,12.9,1.1,13.7,21.6l-35.2,4.7c-6.2,0.8-11.8-3.6-12.4-9.8l-1-10.4
				L866,727.4C866,727.4,867.4,706.5,868.6,687.9z"/>
			<path class="st7" d="M914.1,771.7c-0.3-4.3-3.6-8.2-7.8-9.3"/>
			<path class="st7" d="M898.5,773.6c-1.2-3.1-3.4-5.8-6.2-7.6"/>
		</g>
	</g>
	<path class="st10" d="M449,562.7l-87-4.6c-155.6,3.9-182.4-0.6-202.2,40.6c-4.5,9.4-13.3,27.1-10.8,38l35.7,226.4
		c4.1,25.7,26.2,44.7,52.3,44.7h164.7h13h159.8c28.2,0,51.4-22,52.9-50.1L638.3,651c0.1-2.1,0.4-4.2,0.7-6.3
		c3.1-28.4-9-48.8-32-57.8c-2.3-0.9-4.7-1.6-7.2-2.1C599.7,584.8,508.1,568.7,449,562.7z"/>
	<path class="st11" d="M232.7,690.9c0,0,16.3,67.3,11.8,129.4c-4.5,62.1-46.6,63.7-46.6,63.7l-50.2-167.2L232.7,690.9z"/>
	<path class="st12" d="M645.9,738.2c-9.1-2.2-18-4.9-26.6-8.4c-32.6-13.1-157.3-46.1-208-38.9L382.4,673c0,0-41.8,44.8-41,57.9
		c0.7,13.1,43,17.8,48.3,20.1s21.7-4.3,21.7-4.3s118.1,68,218.3,96.3C725.7,870,734.5,760,645.9,738.2z"/>
	<g>
		<path class="st10" d="M625.3,598.7c0,0,64.5,80.7,72.8,164.5l-152.7-56.5"/>
		<path class="st10" d="M698,763.2l-152.7-56.5c0,0,0.4-17.1,9.6-56.9"/>
	</g>
	<g>
		<path class="st13" d="M330,882.9v13.8c0,0,42.5,7.3,47.8,0c5.2-7.3,1.7-21.3,3.7-26.9c2.1-5.6,2.7-7.7,2.7-7.7s-6.6-8.6-21.5-3.3
			C347.6,864.2,330,882.9,330,882.9z"/>
		<path class="st14" d="M390.5,825.3c0,0-43.1,11.9-46.8,36c0,0-12.9,1.1-13.7,21.6l35.2,4.7c6.2,0.8,11.8-3.6,12.4-9.8l1-10.4
			l8.2-7.1C402.2,849.7,403.4,827.2,390.5,825.3z"/>
		<path class="st15" d="M340.8,877.4c0.3-4.3,3.6-8.2,7.8-9.3"/>
		<path class="st15" d="M356.4,879.3c1.2-3.1,3.4-5.8,6.2-7.6"/>
	</g>
	<g>
		<path class="st10" d="M169.1,582.2c-27.5,30-82.5,110.9-89,177.5l142.8,6c0,0,72.4-173.1-22.2-193.6
			C189.1,569.6,177.1,573.5,169.1,582.2z"/>
	</g>
	<g>
		<g>
			<g>
				<path class="st5" d="M341.3,644.2c0,0,13.7-26.4,46-28.6c0,0,21.8,31.1,1,69.8L341.3,644.2z"/>
				<path class="st16" d="M350.8,647.4c0,0,10.3-19.8,34.4-21.4c0,0,16.3,23.2,0.7,52.2L350.8,647.4z"/>
			</g>
			<g>
				<path class="st5" d="M280.9,642.9c0,0-14.2-26.2-46.5-27.8c0,0-21.2,31.5,0.2,69.8L280.9,642.9z"/>
				<path class="st16" d="M271.5,646.3c0,0-10.6-19.6-34.8-20.8c0,0-15.9,23.5,0.2,52.2L271.5,646.3z"/>
			</g>
			<g>
				<g>
					<g>
						<path class="st17" d="M418.3,858.1c-10.4-7.9-16.9-18-19.9-25.9c-1.7-4.6,0.6-9.7,5.2-11.4c4.6-1.7,9.6,0.6,11.4,5.1
							c0.1,0.3,3.9,9.7,13,17.1c12,9.8,27.6,12,46.6,6.6c18.6-5.3,32.2-17.4,39.2-35c9.7-24.2,5.8-55-10.3-82.4
							c-20.1-34.1-44.9-94.3-28.5-133.8c8.5-20.4,25.5-34.4,49.2-40.5c4.7-1.2,17.5-1.8,23,9.3c5,10-2.5,16.1-7.2,17.3
							c-18.4,4.7-30.5,15-37.3,30.2c-18.8,42.4-3.5,75.5,16,108.5c18.9,32.1,23.2,68.7,11.5,97.9c-9,22.5-27,38.6-50.7,45.4
							C451.9,874.6,431.8,868.3,418.3,858.1z"/>
					</g>
				</g>
				<path d="M502,616.3c0.2-0.5,0.4-0.9,0.6-1.4c6.7-15.2,18.9-25.5,37.3-30.2c4.7-1.2,12.2-7.3,7.2-17.3
					c-5.5-11.1-18.3-10.5-23-9.3c-23,5.9-39.7,19.3-48.5,38.9C480.8,603.9,489.3,612.1,502,616.3z"/>
				<g>
					<defs>
						<path id="SVGID_3_" d="M418.3,858.1c-10.4-7.9-16.9-18-19.9-25.9c-1.7-4.6,0.6-9.7,5.2-11.4c4.6-1.7,9.6,0.6,11.4,5.1
							c0.1,0.3,3.9,9.7,13,17.1c12,9.8,27.6,12,46.6,6.6c18.6-5.3,32.2-17.4,39.2-35c9.7-24.2,5.8-55-10.3-82.4
							c-20.1-34.1-44.9-94.3-28.5-133.8c8.5-20.4,25.5-34.4,49.2-40.5c4.7-1.2,17.5-1.8,23,9.3c5,10-2.5,16.1-7.2,17.3
							c-18.4,4.7-30.5,15-37.3,30.2c-18.8,42.4-3.5,75.5,16,108.5c18.9,32.1,23.2,68.7,11.5,97.9c-9,22.5-27,38.6-50.7,45.4
							C451.9,874.6,431.8,868.3,418.3,858.1z"/>
					</defs>
					<use xlink:href="#SVGID_3_"  style="overflow:visible;fill:#F7AB26;"/>
					<clipPath id="SVGID_4_">
						<use xlink:href="#SVGID_3_"  style="overflow:visible;"/>
					</clipPath>
					<g class="st18">
						<path d="M470.4,651.3c-10.1-4.5-16.8-11-17.3-11.5l11.3-11.4c0.7,0.7,17.7,17.1,36,8.7l6.7,14.6
							C493.2,658.1,480.2,655.6,470.4,651.3z"/>
						<path d="M466.3,689.1c-0.4-0.2-0.8-0.4-1.2-0.6l7.1-14.4c13.5,6.6,27.6-9.3,27.7-9.4l12.2,10.5
							C511.1,676.2,490.4,699.8,466.3,689.1z"/>
						<path d="M487.3,735.7l4-15.6c8.6,2.2,20.3-13.8,24.3-21.4l14.3,7.5C528,709.8,510.6,741.6,487.3,735.7z"/>
						<path d="M496.6,760.6c-0.4-0.2-0.6-0.3-0.7-0.3l7-14.5c0.2,0.1,17.9,8.3,31.2-0.5l8.8,13.4
							C523.5,771.5,500.9,762.5,496.6,760.6z"/>
						<path d="M511.2,797.3c-5.8-2.6-9.5-5.3-9.9-5.5l9.5-13c0.2,0.1,16.7,11.9,32.4,5.3l6.1,14.9
							C534.6,805.1,520.3,801.3,511.2,797.3z"/>
						<path d="M529.4,849.1c-22.7-10.1-32.5-32.3-32.9-33.3l14.8-6.4l-7.4,3.2l7.4-3.2c0.1,0.2,8.5,18.9,26.6,25.8l-5.7,15
							C531.3,849.9,530.3,849.5,529.4,849.1z"/>
						<path d="M495.8,876.3c-17.2-12.9-16.9-40.1-16.9-41.2l16.1,0.3l-8-0.1l8,0.1c-0.1,5.6,1.7,21.5,10.5,28.1L495.8,876.3z"/>
						<path d="M450.1,883.6c-9.4-18.5-0.3-41.9,0.1-42.8l15,5.9c-1.9,4.9-5.7,19.7-0.7,29.6L450.1,883.6z"/>
						<path class="st19" d="M409.6,867.2c3.5-20.9,21.6-37.1,22.3-37.7l10.7,12l-5.3-6l5.3,6c-0.1,0.1-14.6,13.2-17.2,28.4
							L409.6,867.2z"/>
					</g>
					<use xlink:href="#SVGID_3_"  style="overflow:visible;fill:none;stroke:#000000;stroke-width:1.5579;stroke-miterlimit:10;"/>
				</g>
			</g>
			<g>
				<path class="st5" d="M307.6,631.3c-26.1,0.2-52.9,13.1-67.4,32.4c-14.5,19.3-22.6,54.2-20.9,60.5c1.7,6.3,26.6,18.4,45.4,21.4
					c0,0-43.2,101.9,20.3,162.5c36,34.4,108.6,61.1,152.7,37.9c28.5-15,52.5-79.9,40.8-127c-11.7-47.2-111.6-74-111.6-74
					s33-5.5,35.2-14.9c2.2-9.5-5.9-46.3-22.5-65.6C363.1,645.1,337.6,631,307.6,631.3z"/>
				<g>
					<path class="st20" d="M264.7,745.6c15.4,3.4,65.9,6.1,102.2-0.7"/>
					<path class="st21" d="M282,791.5c0,0-0.3,33.8,22.6,54.3c0,0-9.6-7.7-10.6-2.5c-1.1,5.2,11.8,33.3,28.5,49.6"/>
					<g>
						<g>
							<path d="M295.4,632.4c0.3,7.1,1.9,23.8,10.2,44.3c0,0,7.6-22.5,7.7-45.2c-1.9-0.1-3.8-0.1-5.8-0.1
								C303.6,631.4,299.5,631.7,295.4,632.4z"/>
							<path d="M287.4,664.9c-2.9-11.5-2.2-23.8-1.4-30.6c-4.1,1.1-8.1,2.4-11.9,4C276.2,654.6,287.4,664.9,287.4,664.9z"/>
							<path d="M327.9,633.4c0.4,7,0.7,20.3-2.1,32.5c0,0,11.4-14.2,12.6-29.6C335,635.1,331.5,634.2,327.9,633.4z"/>
						</g>
					</g>
					<g>
						<g>
							<path d="M413.4,762c-5.2-2.4-10.4-4.5-15.2-6.4c-1.6,24.5-14.3,54-14.3,54C401.6,792.9,410,772.8,413.4,762z"/>
							<path d="M377.3,837.9c0,0,47.8,11.6,90.7-38.7c-9.6-11.7-24.2-21.6-39.3-29.7C423.1,787.2,408,824.4,377.3,837.9z"/>
							<path d="M478.8,820c-6.7,15.8-25.9,46-75.1,48.8c0,0,22.9,21.3,73.3,13.3C481,860.9,483,838.1,478.8,820z"/>
						</g>
					</g>
					<path class="st21" d="M446.2,849.2c0,0-34.8-8.5-69.1,21.5c-34.2,30-6.9,63.7-6.9,63.7s-25.6-7.7-37.4,4.9"/>
				</g>
			</g>
			<g>
				<g>
					<path d="M281.1,699.8c-0.2,5.2-3.1,9.3-6.5,9.2c-3.4-0.1-5.9-4.5-5.7-9.7c0.2-5.2,3.1-9.3,6.5-9.2
						C278.8,690.2,281.3,694.6,281.1,699.8z"/>
					<path d="M274.6,709c3.4,0.1,6.3-4,6.5-9.2c0-1.1,0-2.2-0.2-3.2l-11.8,5.4C269.7,705.9,271.9,708.8,274.6,709z"/>
					<path class="st22" d="M275.1,697.9c-0.1,1.7-1,3.1-2,3.1s-1.8-1.5-1.7-3.2s1-3.1,2-3.1C274.4,694.8,275.2,696.2,275.1,697.9z"
						/>
				</g>
				<g>
					<path d="M304.9,706.4c-4.3-0.2-16.3,0-16.7,3.7c-0.4,3.6,16,10.9,16,10.9s17-5.8,16.9-9.5C321.1,707.8,309.2,706.6,304.9,706.4
						z"/>
					<path class="st23" d="M324.3,723.9c0,0-3.6,8-11.5,6.6c-8.8-1.6-8.4-9.5-8.4-9.5s-0.3,7.9-9.2,8.7c-7.9,0.7-10.9-7.5-10.9-7.5"
						/>
				</g>
				<g>
					<path d="M339.3,702.2c-0.2,5.2-3.1,9.3-6.5,9.2c-3.4-0.1-5.9-4.5-5.7-9.7c0.2-5.2,3.1-9.3,6.5-9.2
						C337,692.7,339.6,697,339.3,702.2z"/>
					<path d="M332.9,711.4c3.4,0.1,6.3-4,6.5-9.2c0-1.1,0-2.2-0.2-3.2l-11.8,5.4C327.9,708.4,330.1,711.3,332.9,711.4z"/>
					<path class="st22" d="M333.3,700.4c-0.1,1.7-1,3.1-2,3.1c-1,0-1.8-1.5-1.7-3.2c0.1-1.7,1-3.1,2-3.1
						C332.6,697.2,333.4,698.7,333.3,700.4z"/>
				</g>
			</g>
			<g>
				<g>
					<g>
						<g>
							<path d="M359.3,706.2c6.6-2.6,13.7-4,20.8-4.8c7.1-0.8,14.3-1,21.4-0.6c7.1,0.5,14.2,1.4,21.2,3.1c3.5,0.7,6.9,1.8,10.3,2.8
								c1.7,0.5,3.4,1.2,5,1.8c1.7,0.6,3.3,1.3,5,2c-1.7-0.4-3.5-0.8-5.2-1.2c-1.7-0.4-3.4-0.9-5.2-1.2c-3.5-0.7-6.9-1.5-10.4-2
								l-5.2-0.9l-5.2-0.6c-1.7-0.3-3.5-0.4-5.2-0.5c-1.8-0.1-3.5-0.4-5.3-0.4l-5.3-0.3c-1.8,0-3.5,0-5.3,0
								c-1.8-0.1-3.5,0.1-5.3,0.1c-1.8,0-3.5,0.1-5.3,0.2C373.3,703.9,366.2,704.7,359.3,706.2z"/>
						</g>
						<g>
							<path d="M360.1,718.2c7.7,1.1,15.3,3.1,22.7,5.5c1.8,0.6,3.7,1.2,5.5,1.9l5.5,2.1c3.6,1.5,7.2,3,10.7,4.7
								c3.5,1.6,7,3.5,10.4,5.3l5,3c0.8,0.5,1.7,1,2.5,1.5l2.4,1.6c6.6,4.2,12.7,9.1,18.4,14.4c-6.4-4.4-12.8-8.8-19.5-12.6
								c-3.3-2-6.7-3.8-10.1-5.7c-3.5-1.7-6.8-3.6-10.4-5.1c-7-3.3-14.1-6.3-21.3-9.1C374.9,722.9,367.6,720.4,360.1,718.2z"/>
						</g>
						<g>
							<path d="M368.7,711.7c7.5-0.1,15,0.4,22.4,1.4c7.4,0.9,14.8,2.3,22.1,4.1c3.7,0.9,7.3,1.9,10.9,2.9l5.4,1.7l2.7,0.9l2.6,1
								c1.8,0.7,3.5,1.3,5.3,2l5.2,2.3l2.6,1.2l2.5,1.3c1.7,0.9,3.3,1.7,5,2.6c-1.8-0.6-3.5-1.3-5.3-1.9l-2.6-1l-2.7-0.9l-5.3-1.8
								l-5.3-1.7c-7.1-2.2-14.3-4.2-21.5-5.9c-7.2-1.8-14.5-3.3-21.8-4.6C383.5,713.8,376.1,712.6,368.7,711.7z"/>
						</g>
					</g>
				</g>
				<g>
					<g>
						<g>
							<path d="M252.8,704.8c-5.9-4-12.1-7.4-18.4-10.5c-1.6-0.8-3.2-1.5-4.8-2.2c-1.6-0.7-3.2-1.5-4.8-2.1
								c-1.6-0.6-3.3-1.3-4.9-1.9l-5-1.8c-1.6-0.6-3.3-1.1-5-1.6c-1.7-0.5-3.3-1.1-5.1-1.5l-5.1-1.4l-5.1-1.2
								c-3.4-0.9-6.9-1.4-10.4-2c-1.7-0.4-3.5-0.5-5.2-0.8c-1.8-0.2-3.5-0.5-5.3-0.8c1.8,0,3.5,0,5.3,0.1c1.8,0.1,3.6,0,5.3,0.2
								c3.5,0.4,7.1,0.6,10.6,1.3c7.1,1,14,3,20.8,5.2c6.8,2.3,13.3,5.2,19.6,8.7C241.6,696,247.6,699.9,252.8,704.8z"/>
						</g>
						<g>
							<path d="M247.5,715.6c-7.7-0.8-15.5-1.2-23.2-1.4c-7.7-0.2-15.4-0.1-23.1,0.4c-3.9,0.1-7.7,0.5-11.5,0.8
								c-3.8,0.5-7.7,0.8-11.5,1.4c-7.7,1-15.2,2.7-22.8,4.3c7.3-2.7,14.8-4.9,22.5-6.3l2.9-0.6c1-0.2,1.9-0.3,2.9-0.4l5.8-0.8
								c3.9-0.4,7.8-0.8,11.7-1c3.9-0.2,7.8-0.3,11.7-0.3l5.8,0.2c1.9,0.1,3.9,0.2,5.8,0.3C232.2,712.7,239.9,713.8,247.5,715.6z"/>
						</g>
						<g>
							<path d="M242,706.3c-7.2-1.9-14.5-3.6-21.8-5.2c-7.3-1.5-14.6-2.9-22-4c-7.3-1.2-14.7-2-22.1-2.7l-5.6-0.5l-5.6-0.3l-2.8-0.2
								l-2.8-0.1c-1.9-0.1-3.7-0.1-5.6-0.2c1.9-0.2,3.7-0.4,5.6-0.5l2.8-0.2l2.8-0.1l5.6-0.1c1.9,0,3.8,0.1,5.6,0.1l2.8,0.1l2.8,0.2
								l5.6,0.4c3.7,0.4,7.5,0.8,11.2,1.4c7.4,1.2,14.8,2.6,22,4.6C228,701.1,235.2,703.4,242,706.3z"/>
						</g>
					</g>
				</g>
			</g>
		</g>
	</g>
	<path class="st12" d="M100.3,760.6c0,0-10.5,106.1,17.9,124.8s328,22.4,328,22.4h65.3c0,0-17-35.1-61.2-35.1
		c-44.2,0-233.4-59.8-233.4-59.8l-2.2-47.1L100.3,760.6z"/>
	<g>
		<path class="st5" d="M257.3,778.7c0,0-29.1,23.9-32.8,48.1c0,0-12.9,1.1-13.7,21.6l35.2,4.7c6.2,0.8,11.8-3.6,12.4-9.8l1-10.4
			l5.6-5.4"/>
		<path class="st24" d="M221.6,842.9c0.3-4.3,3.6-8.2,7.8-9.3"/>
		<path class="st25" d="M237.3,844.8c1.2-3.1,3.4-5.8,6.2-7.6"/>
	</g>
	<g>
		<path class="st26" d="M390.5,825.3c0,0-43.1,11.9-46.8,36c0,0-12.9,1.1-13.7,21.6l35.2,4.7c6.2,0.8,11.8-3.6,12.4-9.8l1-10.4
			l8.2-7.1C402.2,849.7,403.4,827.2,390.5,825.3z"/>
		<path class="st24" d="M340.8,877.4c0.3-4.3,3.6-8.2,7.8-9.3"/>
		<path class="st24" d="M356.4,879.3c1.2-3.1,3.4-5.8,6.2-7.6"/>
	</g>
	<path class="st12" d="M410,584.8l-2.6-0.4c-15.7-2.2-26.7-16.7-24.5-32.3l2.6-18.9c1.5-11.1,11.8-18.8,22.9-17.3l19.3,2.7
		c11.1,1.5,18.8,11.8,17.3,22.9l-2.6,18.9C440.2,576,425.7,587,410,584.8z"/>
	<path class="st12" d="M685.4,564.8L685.4,564.8c-18.7-1.6-32.5-18-30.9-36.7l2.9-34.2c1.1-13.2,12.7-23,25.9-21.8l19.8,1.7
		c13.2,1.1,23,12.7,21.8,25.9l-2.9,34.2C720.5,552.6,704.1,566.4,685.4,564.8z"/>
	<path class="st12" d="M493.8,454.8c-4.5,49-39.2,85.8-77.4,82.3c-38.2-3.5-65.6-46.1-61-95.1c4.5-49,39.2-85.8,77.4-82.3
		C471,363.3,498.3,405.8,493.8,454.8z"/>
	<path d="M406.9,433.9c-0.3,2.8-2.8,4.9-5.6,4.7s-4.9-2.8-4.7-5.6s2.8-4.9,5.6-4.7S407.2,431,406.9,433.9"/>
	<path d="M463.4,439.1c-0.3,2.8-2.8,4.9-5.6,4.7s-4.9-2.8-4.7-5.6c0.3-2.8,2.8-4.9,5.6-4.7S463.6,436.3,463.4,439.1"/>
	<path class="st27" d="M487,426.6c-19.3-17.6-47-13-47-13l-5.7,61.5l-15-1.4"/>
	<path d="M432.6,385c8.8,2.6,19.2,2.8,24.9,9.9c4.7,5.9,2.6,18.2,6.2,25c5.2,10,17,6.7,22.5,16.6c3.5,6.4,1.2,14.6,1.3,21.9
		c0.1,6,2.3,15.8,12.6,16.8c9.9,0.9,15.7-3.8,16.6-9.7c2-12.2-8.2-3.9-5.3-35.3c2.4-26.4-1.7-56-18.7-75.8
		c-16.1-18.7-41-24.8-60.2-21.5c-12.3,2.1-16.7,8.8-22.4,15c-17.6-2.4-34.4,13.7-44.5,28.4c-8.4,12.2-16.3,56.4-7.5,92.9
		c0,0,0.2-16,4.2-33.5c1.5-6.8,2.1-15.4,8-19.7c4.1-2.9,10.3-0.9,14.4-3.8c7.6-5.5-0.9-20.1,6.2-26.2c3.7-3.2,8-1.9,12.7-3
		c7-1.7,9.9-12.2,9.9-12.2C418.3,377.3,425.4,382.8,432.6,385"/>
	<path class="st28" d="M368.2,444.9c-0.7,7-6.9,12.2-13.9,11.6c-7-0.7-12.2-6.9-11.6-13.9c0.7-7,6.9-12.2,13.9-11.6
		C363.7,431.6,368.8,437.8,368.2,444.9"/>
	<path class="st27" d="M413.8,410c-11.5-0.9-23.2,5.2-28.9,15.2"/>
	<path class="st27" d="M396.9,486.4c0.3,11.9,17.2,22.4,25.5,19.1"/>
	<path class="st12" d="M612.8,413.4c-5.7,54.2,11.4,100.2,54.3,104.7c43,4.5,82.4-35.7,88.1-89.9c5.7-54.2-24.5-101.8-67.4-106.3
		C644.9,317.4,618.6,359.2,612.8,413.4"/>
	<path d="M780.7,334.9c-2.2-20.5-29.4-42.5-80.1-47.8c-18.4-1.9-52.5-0.3-64.7,9c-9.4,7.2-17.9,58.5-11.8,71.3
		c6-13.7,19-24.2,41.8-22.7c21.3,1.4,55.4,13.2,66,31.7l-8,57.7l8.4,2c0.1-5.3,8.1-19.8,16.6-15c5.9,3.3,2.8,18.9-9.1,25.5
		c-4.9,2.7-4.9,35.9-4.9,35.9c18.9-8.5,30.2-33.2,33.1-54.7C768,427.8,782.1,347.2,780.7,334.9"/>
	<path class="st27" d="M672.9,392.9c12.6-2,26.2,3.8,33.4,14.4"/>
	<polyline class="st27" points="640.7,398.5 635.1,451.1 655.5,453.3 	"/>
	<path class="st27" d="M678.2,475.3c-3.8,7.4-11.2,12.8-19.3,14.3"/>
	<path class="st27" d="M640.7,398.5c1-8.5-5-11.8-10-13.4c-5-1.6-10.5-1.1-15.7-0.6"/>
	<g>
		<g>
			<g>
				<path class="st29" d="M305.6,196.9c1.8-0.1,3.4,0.4,4.8,1.5c1.3,1.1,2,2.6,2.2,4.4c0.2,2.5-0.8,4.7-2.7,6.8
					c-1.9,1.9-4.1,2.9-6.5,3c-1.8,0.1-3.4-0.3-4.7-1.3c-1.3-1-2-2.4-2.1-4.3c0-0.4,0-0.8,0-1.2c0-0.5,0.1-0.9,0.3-1.4
					c0.5-2,1.6-3.7,3.3-5.1C301.8,197.8,303.6,197,305.6,196.9z"/>
			</g>
		</g>
	</g>
	<g>
		<g>
			<g>
				<path class="st30" d="M60.2,160.3c2.1,0,3.8,0.7,5.2,2c1.4,1.3,2.1,3,2.1,5.1c0,2.8-1.2,5.3-3.6,7.4c-2.3,2-4.8,2.9-7.5,2.9
					c-2.1,0-3.8-0.6-5.2-1.9c-1.4-1.2-2-2.9-2-5c0-0.4,0-0.9,0.1-1.4c0.1-0.5,0.2-1,0.4-1.5c0.7-2.2,2.1-4,4.1-5.5
					C55.8,161,57.9,160.3,60.2,160.3z"/>
			</g>
		</g>
	</g>
	<g>
		<g>
			<g>
				<path class="st30" d="M977.8,439.1c2.1,0,3.8,0.7,5.2,2c1.4,1.3,2.1,3,2.1,5.1c0,2.8-1.2,5.3-3.6,7.4c-2.3,2-4.8,2.9-7.5,2.9
					c-2.1,0-3.8-0.6-5.2-1.9c-1.4-1.2-2-2.9-2-5c0-0.4,0-0.9,0.1-1.4c0.1-0.5,0.2-1,0.4-1.5c0.7-2.2,2.1-4,4.1-5.5
					C973.3,439.9,975.5,439.1,977.8,439.1z"/>
			</g>
		</g>
	</g>
	<g>
		<g>
			<g>
				<path class="st30" d="M82,594.9c2.1,0,3.8,0.7,5.2,2c1.4,1.3,2.1,3,2.1,5.1c0,2.8-1.2,5.3-3.6,7.4c-2.3,2-4.8,2.9-7.5,2.9
					c-2.1,0-3.8-0.6-5.2-1.9c-1.4-1.2-2-2.9-2-5c0-0.4,0-0.9,0.1-1.4c0.1-0.5,0.2-1,0.4-1.5c0.7-2.2,2.1-4,4.1-5.5
					C77.6,595.7,79.7,594.9,82,594.9z"/>
			</g>
		</g>
	</g>
	<g>
		<g>
			<g>
				<path d="M334.8,166.7c1.7,0,3.1,0.5,4.2,1.6c1.1,1.1,1.7,2.4,1.7,4.1c0,2.2-1,4.2-2.9,6c-1.8,1.6-3.8,2.4-6,2.4
					c-1.7,0-3-0.5-4.1-1.5c-1.1-1-1.6-2.3-1.6-4c0-0.3,0-0.7,0.1-1.1c0-0.4,0.1-0.8,0.3-1.2c0.6-1.7,1.7-3.2,3.3-4.4
					C331.3,167.3,333,166.7,334.8,166.7z"/>
			</g>
		</g>
	</g>
	<ellipse class="st31" cx="958.1" cy="172.5" rx="42.7" ry="47.2"/>
	<ellipse class="st32" cx="1000.6" cy="251.8" rx="16.1" ry="17.8"/>
	<ellipse class="st33" cx="111.5" cy="315" rx="20.9" ry="23.2"/>
	<ellipse class="st34" cx="893.4" cy="256.4" rx="13" ry="14.4"/>
	<path d="M629.7,410.5c-0.3,2.8-2.8,4.9-5.6,4.7c-2.8-0.3-4.9-2.8-4.7-5.6s2.8-4.9,5.6-4.7C627.9,405.2,630,407.7,629.7,410.5"/>
	<path d="M683,415.7c-0.3,2.8-2.8,4.9-5.6,4.7c-2.8-0.3-4.9-2.8-4.7-5.6s2.8-4.9,5.6-4.7C681.2,410.4,683.3,412.9,683,415.7"/>
</g>
</svg>
